<svg xmlns="http://www.w3.org/2000/svg" width="16.895" height="16.858" viewBox="0 0 16.895 16.858">
  <g id="XMLID_801_" transform="translate(0 0)">
    <path id="XMLID_802_" d="M8.591,99.73H5.2a.272.272,0,0,0-.272.272v10.9a.272.272,0,0,0,.272.273H8.591a.272.272,0,0,0,.272-.273V100A.272.272,0,0,0,8.591,99.73Z" transform="translate(-4.658 -94.313)" fill="#00a0b2"/>
    <path id="XMLID_803_" d="M2.238.341A2.236,2.236,0,1,0,4.474,2.577,2.239,2.239,0,0,0,2.238.341Z" transform="translate(0 -0.341)" fill="#00a0b2"/>
    <path id="XMLID_804_" d="M112.949,94.761a3.983,3.983,0,0,0-2.98,1.251V95.3a.272.272,0,0,0-.272-.272h-3.248a.272.272,0,0,0-.272.272v10.9a.272.272,0,0,0,.272.273h3.384a.272.272,0,0,0,.272-.273v-5.391c0-1.817.493-2.524,1.76-2.524,1.379,0,1.489,1.135,1.489,2.618v5.3a.272.272,0,0,0,.272.272h3.385a.272.272,0,0,0,.272-.272v-5.977C117.284,97.522,116.769,94.761,112.949,94.761Z" transform="translate(-100.389 -89.615)" fill="#00a0b2"/>
  </g>
</svg>
