<svg id="XMLID_834_" xmlns="http://www.w3.org/2000/svg" width="8.534" height="16.895" viewBox="0 0 8.534 16.895">
  <path id="XMLID_835_" d="M76.975,9h1.852v7.624a.272.272,0,0,0,.272.272h3.14a.272.272,0,0,0,.272-.272V9.034h2.129a.273.273,0,0,0,.271-.241l.323-2.807a.272.272,0,0,0-.271-.3H82.513V3.923c0-.53.286-.8.849-.8h1.6a.272.272,0,0,0,.272-.272V.275A.272.272,0,0,0,84.965,0h-2.21c-.016,0-.05,0-.1,0a4.234,4.234,0,0,0-2.769,1.044,2.9,2.9,0,0,0-.966,2.581V5.682H76.975a.272.272,0,0,0-.272.272V8.726A.272.272,0,0,0,76.975,9Z" transform="translate(-76.703)" fill="#00a0b2"/>
</svg>
