<svg id="XMLID_13_" xmlns="http://www.w3.org/2000/svg" width="16.858" height="16.858" viewBox="0 0 16.858 16.858">
  <path id="XMLID_17_" d="M11.836,0H5.022A5.028,5.028,0,0,0,0,5.022v6.814a5.028,5.028,0,0,0,5.022,5.022h6.814a5.028,5.028,0,0,0,5.022-5.022V5.022A5.028,5.028,0,0,0,11.836,0Zm3.326,11.836a3.326,3.326,0,0,1-3.326,3.326H5.022A3.326,3.326,0,0,1,1.7,11.836V5.022A3.326,3.326,0,0,1,5.022,1.7h6.814a3.326,3.326,0,0,1,3.326,3.326v6.814Z" fill="#00a0b2"/>
  <path id="XMLID_81_" d="M137.36,133a4.36,4.36,0,1,0,4.36,4.36A4.365,4.365,0,0,0,137.36,133Zm0,7.024a2.664,2.664,0,1,1,2.664-2.664A2.664,2.664,0,0,1,137.36,140.024Z" transform="translate(-128.931 -128.931)" fill="#00a0b2"/>
  <ellipse id="XMLID_83_" cx="1.045" cy="1.045" rx="1.045" ry="1.045" transform="translate(11.752 3.057)" fill="#00a0b2"/>
</svg>
