<svg xmlns="http://www.w3.org/2000/svg" width="48.265" height="49.248" viewBox="0 0 48.265 49.248">
  <g id="_20230822192910_Google__G__logo" data-name="20230822192910!Google__G__logo" transform="translate(1184.578 765.171)">
    <path id="Union_24" data-name="Union 24" d="M-10174.47-5593.533l6.379-4.971,1.8-1.379.01.015a14.7,14.7,0,0,0,13.792,10.14,14.676,14.676,0,0,0,8.3-2.372l7.992,6.2a23.5,23.5,0,0,1-16.3,5.955A24.622,24.622,0,0,1-10174.47-5593.533Zm30.287,1.433a11.358,11.358,0,0,0,4.948-7.41h-13.252v-9.537h23.19a28.32,28.32,0,0,1,.449,5.038c0,7.5-2.687,13.812-7.344,18.109Z" transform="translate(8992.533 4864.022)" fill="#42cede"/>
    <path id="Union_25" data-name="Union 25" d="M-10171.826-5573.386a24.308,24.308,0,0,1-2.644-11.036,24.3,24.3,0,0,1,2.643-11.035h0a24.585,24.585,0,0,1,21.982-13.589,23.626,23.626,0,0,1,16.476,6.424l-7.051,7.053a13.44,13.44,0,0,0-9.425-3.672,14.7,14.7,0,0,0-13.788,10.14,14.737,14.737,0,0,0-.784,4.68,14.739,14.739,0,0,0,.784,4.678s-8.166,6.358-8.191,6.358Z" transform="translate(8989.892 4843.876)" fill="#00a4b6"/>
  </g>
</svg>
