<svg xmlns="http://www.w3.org/2000/svg" width="48.264" height="48.264" viewBox="0 0 48.264 48.264">
  <g id="instagram" transform="translate(-6 -6)">
    <path id="Path_1164" data-name="Path 1164" d="M43.539,6H16.725A10.725,10.725,0,0,0,6,16.725V43.539A10.725,10.725,0,0,0,16.725,54.264H43.539A10.725,10.725,0,0,0,54.264,43.539V16.725A10.725,10.725,0,0,0,43.539,6Z" transform="translate(0 0)" fill="#42cede"/>
    <path id="Path_1165" data-name="Path 1165" d="M26.725,37.451A10.725,10.725,0,1,0,16,26.725,10.725,10.725,0,0,0,26.725,37.451Z" transform="translate(3.407 3.407)" fill="#00a4b6" stroke="#fff" stroke-linejoin="round" stroke-width="4"/>
    <path id="Path_1166" data-name="Path 1166" d="M35.681,16.363A2.681,2.681,0,1,0,33,13.681,2.681,2.681,0,0,0,35.681,16.363Z" transform="translate(9.198 1.703)" fill="#fff"/>
  </g>
</svg>
