<svg xmlns="http://www.w3.org/2000/svg" width="31.167" height="39.76" viewBox="0 0 31.167 39.76">
  <path id="location-outlined" d="M19.71,39.484l-.012-.01Zm.355-.534a56.489,56.489,0,0,0,6.2-6.607c3.974-4.993,6.391-9.915,6.555-14.292a13.246,13.246,0,1,0-26.474,0c.166,4.377,2.585,9.3,6.557,14.292a56.491,56.491,0,0,0,6.2,6.607q.323.292.481.425ZM18.146,41.22S4,29.306,4,17.583a15.583,15.583,0,1,1,31.167,0c0,11.723-14.146,23.636-14.146,23.636a2.182,2.182,0,0,1-2.875,0m1.438-18.182a5.454,5.454,0,1,0-5.454-5.454,5.454,5.454,0,0,0,5.454,5.454m0,2.338a7.792,7.792,0,1,1,7.792-7.792,7.792,7.792,0,0,1-7.792,7.792" transform="translate(-4 -2)" fill="#00a4b6" fill-rule="evenodd"/>
</svg>
