<svg xmlns="http://www.w3.org/2000/svg" width="40.25" height="40.25" viewBox="0 0 40.25 40.25">
  <path id="screenshot" d="M7.6,38.758h9.089a1.3,1.3,0,1,1,0,2.6H7.1a2.058,2.058,0,0,1-2.1-2.1V29.669a1.25,1.25,0,0,1,.374-.924,1.272,1.272,0,0,1,.927-.374,1.273,1.273,0,0,1,1.3,1.3ZM7.6,7.6v9.089a1.277,1.277,0,0,1-1.3,1.3,1.273,1.273,0,0,1-1.3-1.3V7.1A2.058,2.058,0,0,1,7.1,5h9.587a1.25,1.25,0,0,1,.924.374,1.272,1.272,0,0,1,.374.927,1.273,1.273,0,0,1-1.3,1.3Zm31.161,0H29.669a1.277,1.277,0,0,1-1.3-1.3,1.273,1.273,0,0,1,1.3-1.3h9.587a2.058,2.058,0,0,1,2.1,2.1v9.587a1.25,1.25,0,0,1-.374.924,1.269,1.269,0,0,1-.924.374,1.277,1.277,0,0,1-1.3-1.3Zm-2.6,31.161H30.968a1.3,1.3,0,1,1,0-2.6h5.194V30.968a1.25,1.25,0,0,1,.374-.924,1.272,1.272,0,0,1,.927-.374,1.273,1.273,0,0,1,1.3,1.3v5.194h5.194a1.25,1.25,0,0,1,.924.374,1.272,1.272,0,0,1,.374.927,1.273,1.273,0,0,1-1.3,1.3H38.758v5.194a1.3,1.3,0,1,1-2.6,0Z" transform="translate(-5 -5)" fill="#00a4b6"/>
</svg>
