<svg xmlns="http://www.w3.org/2000/svg" width="40" height="39.999" viewBox="0 0 40 39.999">
  <g id="Group_1945" data-name="Group 1945" transform="translate(-196.903 -1247.404)">
    <g id="clock-svgrepo-com" transform="translate(196.903 1247.404)">
      <g id="Group_1144" data-name="Group 1144" transform="translate(0 0)">
        <path id="Path_770" data-name="Path 770" d="M20,0A20,20,0,1,0,40,20,20.022,20.022,0,0,0,20,0Zm0,38.006A18.006,18.006,0,1,1,38.006,20,18.027,18.027,0,0,1,20,38.007Z" transform="translate(0 -0.001)" fill="#00a4b6"/>
      </g>
    </g>
    <g id="Path_303" data-name="Path 303" transform="translate(205.954 1254.995)">
      <path id="Path_703" data-name="Path 703" d="M281.333,396.049a1.112,1.112,0,0,0,.845-.111l10.075-5.815a1.112,1.112,0,0,0,.519-.676l3.043-11.349a1.116,1.116,0,0,0-2.152-.577l-2.924,10.9-9.674,5.584a1.116,1.116,0,0,0,.267,2.04Z" transform="translate(-280.512 -376.76)" fill="#00a4b6"/>
    </g>
  </g>
</svg>
