<svg xmlns="http://www.w3.org/2000/svg" width="41.999" height="42.001" viewBox="0 0 41.999 42.001">
  <g id="gift" transform="translate(-2 -1.999)">
    <path id="Path_1171" data-name="Path 1171" d="M3,10.222A2.222,2.222,0,0,1,5.222,8H40.777A2.222,2.222,0,0,1,43,10.222v4.444a2.222,2.222,0,0,1-2.222,2.222H5.222A2.222,2.222,0,0,1,3,14.667ZM23,8V36.888" transform="translate(0 6.111)" fill="none" stroke="#00a4b6" stroke-linecap="round" stroke-linejoin="round" stroke-width="2"/>
    <path id="Path_1172" data-name="Path 1172" d="M36.111,23V38.556A4.444,4.444,0,0,1,31.666,43H9.444A4.444,4.444,0,0,1,5,38.556V23m5.555-8.889A5.555,5.555,0,0,1,10.555,3c4.387-.076,8.355,4.332,10,11.111C22.2,7.333,26.168,2.924,30.555,3a5.555,5.555,0,0,1,0,11.111" transform="translate(2.444 0)" fill="none" stroke="#00a4b6" stroke-linecap="round" stroke-linejoin="round" stroke-width="2"/>
  </g>
</svg>
