<svg xmlns="http://www.w3.org/2000/svg" width="40.917" height="40.919" viewBox="0 0 40.917 40.919">
  <path id="whatsapp-logo-thin" d="M60.268,52.637,53.72,49.364a.818.818,0,0,0-.818.051l-3.4,2.271a9.117,9.117,0,0,1-4.278-4.278L47.491,44a.818.818,0,0,0,.051-.818l-3.274-6.547a.818.818,0,0,0-.734-.454,7.365,7.365,0,0,0-7.365,7.365A17.2,17.2,0,0,0,53.354,60.735,7.365,7.365,0,0,0,60.72,53.37.818.818,0,0,0,60.268,52.637ZM53.354,59.1A15.566,15.566,0,0,1,37.8,43.549a5.729,5.729,0,0,1,5.235-5.708l2.822,5.649-2.251,3.384a.818.818,0,0,0-.078.767,10.727,10.727,0,0,0,5.729,5.729.818.818,0,0,0,.769-.076l3.384-2.251,5.649,2.823A5.729,5.729,0,0,1,53.354,59.1ZM48.444,28a20.46,20.46,0,0,0-17.9,30.383l-2.435,7.3a2.455,2.455,0,0,0,3.106,3.106l7.3-2.435A20.46,20.46,0,1,0,48.444,28Zm0,39.282a18.823,18.823,0,0,1-9.426-2.527.829.829,0,0,0-.409-.11.8.8,0,0,0-.26.043L30.7,67.237A.818.818,0,0,1,29.666,66.2l2.549-7.648a.818.818,0,0,0-.068-.669,18.823,18.823,0,1,1,16.3,9.4Z" transform="translate(-27.98 -28)" fill="#00a4b6"/>
</svg>
